<?xml version="1.0" standalone="no"?>
<!DOCTYPE svg PUBLIC "-//W3C//DTD SVG 20010904//EN"
 "http://www.w3.org/TR/2001/REC-SVG-20010904/DTD/svg10.dtd">
<svg version="1.0" xmlns="http://www.w3.org/2000/svg"
 width="512.000000pt" height="512.000000pt" viewBox="0 0 512.000000 512.000000"
 preserveAspectRatio="xMidYMid meet">
<metadata>
Created by potrace 1.11, written by Peter Selinger 2001-2013
</metadata>
<g transform="translate(0.000000,512.000000) scale(0.100000,-0.100000)"
fill="#000000" stroke="none">
<path d="M0 2560 l0 -2560 2560 0 2560 0 0 2560 0 2560 -2560 0 -2560 0 0
-2560z m3992 1115 l-3 -314 -77 -3 -77 -3 -3 -77 -3 -77 -77 -3 -77 -3 -1 -75
-1 -75 -76 -3 -76 -3 -3 -77 -3 -77 -77 -3 -77 -3 -3 -77 -3 -77 -77 -3 -77
-3 -3 -77 -3 -77 -77 -3 -77 -3 -3 -77 -3 -77 -77 -3 -77 -3 -3 -77 -3 -77
-77 -3 -77 -3 -3 -77 -3 -77 -77 -3 -77 -3 -3 -77 -3 -77 -77 -3 -78 -3 0 -79
0 -80 80 0 80 0 0 -80 0 -80 80 0 80 0 0 -235 0 -235 -240 0 -240 0 0 80 0 80
-80 0 -80 0 0 80 0 80 -160 0 -160 0 0 -80 0 -80 -80 0 -80 0 0 -80 0 -80
-235 0 -235 0 0 235 0 235 80 0 80 0 0 80 0 80 80 0 80 0 0 160 0 160 -80 0
-80 0 0 80 0 80 -80 0 -80 0 0 240 0 240 235 0 235 0 0 -80 0 -80 80 0 80 0 0
-80 0 -80 80 0 79 0 3 78 3 77 77 3 77 3 3 77 3 77 77 3 77 3 3 77 3 77 77 3
77 3 3 77 3 77 77 3 77 3 3 77 3 77 77 3 77 3 3 77 3 77 77 3 77 3 3 77 3 77
77 3 77 3 3 77 3 77 78 3 77 3 0 74 c0 41 3 75 8 76 4 1 39 2 77 3 l70 1 3 78
3 77 317 0 317 0 -3 -315z"/>
<path d="M3360 3440 l0 -80 -80 0 -80 0 0 -80 0 -80 -80 0 -80 0 0 -80 0 -80
-80 0 -80 0 0 -80 0 -80 -80 0 -80 0 0 -80 0 -80 -80 0 -80 0 0 -80 0 -80 -80
0 -80 0 0 -80 0 -80 -80 0 -80 0 0 -80 0 -80 -80 0 -80 0 0 -80 0 -80 80 0 80
0 0 80 0 80 80 0 80 0 0 80 0 80 80 0 80 0 0 80 0 80 80 0 80 0 0 80 0 80 80
0 80 0 0 80 0 80 80 0 80 0 0 80 0 80 80 0 80 0 0 80 0 80 80 0 80 0 0 80 0
80 80 0 80 0 0 80 0 80 -80 0 -80 0 0 -80z"/>
</g>
</svg>
